<svg width="24" height="18" viewBox="0 0 24 18" fill="none" xmlns="http://www.w3.org/2000/svg">
<path d="M23.205 8.88104C22.3229 6.59928 20.7915 4.626 18.8001 3.2051C16.8088 1.78421 14.4447 0.977969 12 0.88604C9.55543 0.977969 7.19134 1.78421 5.19995 3.2051C3.20856 4.626 1.67717 6.59928 0.795047 8.88104C0.735473 9.04582 0.735473 9.22626 0.795047 9.39104C1.67717 11.6728 3.20856 13.6461 5.19995 15.067C7.19134 16.4879 9.55543 17.2941 12 17.386C14.4447 17.2941 16.8088 16.4879 18.8001 15.067C20.7915 13.6461 22.3229 11.6728 23.205 9.39104C23.2646 9.22626 23.2646 9.04582 23.205 8.88104ZM12 15.886C8.02505 15.886 3.82505 12.9385 2.30255 9.13604C3.82505 5.33354 8.02505 2.38604 12 2.38604C15.975 2.38604 20.175 5.33354 21.6975 9.13604C20.175 12.9385 15.975 15.886 12 15.886Z" fill="#F33823"/>
</svg>
